<svg xmlns="http://www.w3.org/2000/svg" width="50" height="50" viewBox="214 698.95 50 50"><g data-name="facebook"><g data-name="Ellipse f"><path d="M214 723.9a25 25 0 1 1 0 .1z" fill="#fff" fill-rule="evenodd"/><path d="M214.5 723.901a24.5 24.5 0 1 1 0 .098z" stroke-linejoin="round" stroke-linecap="round" stroke="#e6e6e6" fill="transparent" stroke-width=".98"/></g><path d="M234.042 735.575a5.521 5.521 0 0 1-1.296-1.202c-.4-.483-.772-.99-1.113-1.517a14.774 14.774 0 0 1-1.858-3.795c-.522-1.565-.775-3.065-.775-4.533 0-1.639.355-3.07 1.048-4.271a6.01 6.01 0 0 1 2.189-2.274 5.83 5.83 0 0 1 2.963-.877c.367 0 .762.053 1.181.155.302.085.669.22 1.117.387.57.22.885.355.991.388.334.122.615.175.836.175.167 0 .404-.053.672-.134.151-.054.436-.148.844-.322.403-.147.721-.273.974-.367.387-.114.762-.22 1.096-.273a5.214 5.214 0 0 1 1.199-.05 7.092 7.092 0 0 1 2.026.436c1.063.428 1.923 1.097 2.563 2.047-.27.167-.524.359-.758.574a6.38 6.38 0 0 0-1.284 1.57 5.341 5.341 0 0 0-.672 2.628c.016 1.13.306 2.124.876 2.984.42.638.965 1.183 1.602 1.602.326.22.607.371.877.473-.126.391-.26.77-.42 1.146-.36.842-.797 1.65-1.304 2.412-.453.657-.807 1.146-1.076 1.472-.42.496-.824.876-1.231 1.14a2.75 2.75 0 0 1-1.517.457 3.44 3.44 0 0 1-1.08-.13c-.301-.103-.6-.213-.893-.339a7.146 7.146 0 0 0-.942-.354 4.905 4.905 0 0 0-2.425-.004c-.326.094-.64.203-.95.338-.436.183-.725.306-.893.358a4.63 4.63 0 0 1-1.031.18c-.543 0-1.048-.156-1.549-.47Zm7.153-19.264c-.709.355-1.386.506-2.058.456-.106-.677 0-1.37.28-2.128a5.685 5.685 0 0 1 1.044-1.753 5.554 5.554 0 0 1 1.7-1.312c.689-.355 1.345-.546 1.973-.574.081.709 0 1.406-.26 2.16a6.246 6.246 0 0 1-1.044 1.834 5.345 5.345 0 0 1-1.655 1.316Z" fill-rule="evenodd" data-name="Icon corebrands-apple"/></g></svg>