<svg xmlns="http://www.w3.org/2000/svg" width="50" height="50" viewBox="152 698.95 50 50"><g data-name="gmail"><g data-name="Ellipse g"><path d="M152 723.9a25 25 0 1 1 0 .1z" fill="#fff" fill-rule="evenodd"/><path d="M152.5 723.901a24.5 24.5 0 1 1 0 .098z" stroke-linejoin="round" stroke-linecap="round" stroke="#e6e6e6" fill="transparent" stroke-width=".98"/></g><g data-name="Group 90"><path d="m170.876 726.295-.766 2.859-2.799.059a10.951 10.951 0 0 1-1.31-5.213c0-1.824.443-3.544 1.229-5.059l2.492.457 1.092 2.477a6.539 6.539 0 0 0-.353 2.125c0 .807.146 1.581.415 2.295Z" fill="#1a1a1a" fill-rule="evenodd" data-name="y"/><path d="M187.808 721.945a11.022 11.022 0 0 1-.048 4.352 10.998 10.998 0 0 1-3.874 6.281l-3.139-.16-.444-2.774a6.556 6.556 0 0 0 2.82-3.347h-5.881v-4.352H187.808Z" fill="#1a1a1a" fill-rule="evenodd" data-name="b"/><path d="M183.886 732.578A10.954 10.954 0 0 1 177 735a10.998 10.998 0 0 1-9.689-5.787l3.565-2.918a6.54 6.54 0 0 0 9.427 3.35l3.583 2.933Z" fill="#1a1a1a" fill-rule="evenodd" data-name="g"/><path d="m184.021 715.532-3.563 2.918a6.542 6.542 0 0 0-9.644 3.425l-3.583-2.934h-.001A10.998 10.998 0 0 1 177 713c2.669 0 5.116.95 7.021 2.532Z" fill="#1a1a1a" fill-rule="evenodd" data-name="r"/></g></g></svg>