<svg xmlns="http://www.w3.org/2000/svg" width="24" height="23.999" viewBox="44 530 24 23.999"><g data-name="Icon core-av-timer"><path d="M55.25 547.25h1.5v2.25h-1.5v-2.25Zm-6.749-10.126h1.5v2.25h-1.5v-2.25Zm13.499 0h1.5v2.25H62v-2.25Z" fill="#898989" fill-rule="evenodd" data-name="Path 27588"/><path d="M64.485 533.515a11.91 11.91 0 0 0-7.628-3.485V530h-1.714v5.143h1.714v-3.393c5.272.437 9.429 4.867 9.429 10.25 0 5.67-4.614 10.285-10.286 10.285-5.671 0-10.285-4.614-10.285-10.285a10.264 10.264 0 0 1 3.022-7.283l6.194 7.815 1.343-1.065-7.313-9.226-.675.567a12 12 0 1 0 16.2.707Z" fill="#898989" fill-rule="evenodd" data-name="Path 27589"/></g></svg>